<?xml version="1.0" standalone="no"?>
<!DOCTYPE svg PUBLIC "-//W3C//DTD SVG 20010904//EN"
 "http://www.w3.org/TR/2001/REC-SVG-20010904/DTD/svg10.dtd">
<svg version="1.0" xmlns="http://www.w3.org/2000/svg"
 width="1080.000000pt" height="1080.000000pt" viewBox="0 0 1080.000000 1080.000000"
 preserveAspectRatio="xMidYMid meet">
<metadata>
Created by potrace 1.14, written by Peter Selinger 2001-2017
</metadata>
<g transform="translate(0.000000,1080.000000) scale(0.100000,-0.100000)"
fill="#000000" stroke="none">
<path d="M5619 8588 c0 -2 -2 -13 -3 -25 -3 -30 -12 -38 -20 -18 -4 11 -2 14
7 9 7 -4 7 -1 -2 7 -10 11 -15 11 -18 1 -3 -6 -9 -10 -14 -7 -5 4 -6 -1 -3 -9
3 -9 9 -14 13 -11 4 2 8 -2 8 -9 0 -9 -6 -10 -23 -2 -12 6 -20 14 -18 18 2 4
-5 6 -16 5 -13 -1 -16 -5 -10 -11 13 -13 13 -26 -1 -26 -5 0 -7 5 -4 10 3 6 1
11 -4 11 -36 4 -45 2 -48 -11 -4 -12 -3 -12 5 -2 7 11 11 10 16 -4 4 -10 4
-15 0 -11 -4 4 -14 1 -22 -6 -11 -8 -14 -8 -9 0 4 6 3 14 -3 18 -6 3 -13 -1
-16 -9 -3 -9 -11 -13 -18 -9 -16 11 -30 10 -39 -2 -5 -5 -6 -1 -3 10 5 17 1
20 -23 20 -16 1 -27 -3 -25 -7 3 -5 9 -6 14 -3 5 3 11 1 15 -4 6 -10 -27 -7
-45 4 -5 3 -7 -4 -5 -16 l4 -22 -24 23 c-13 13 -21 28 -18 34 4 6 -1 4 -11 -3
-17 -14 -17 -16 1 -29 16 -12 15 -13 -11 -6 -22 5 -27 4 -21 -6 6 -9 4 -11 -4
-5 -9 5 -10 10 -2 18 6 6 11 15 11 21 0 5 -8 0 -18 -12 -17 -19 -19 -19 -29
-4 -9 14 -10 13 -8 -10 2 -20 -1 -25 -12 -21 -12 5 -12 8 -1 15 10 8 9 9 -4 4
-10 -3 -20 -1 -23 5 -4 5 -12 6 -18 2 -24 -15 -47 -13 -47 5 0 9 -4 13 -8 7
-9 -13 -32 -17 -32 -6 0 5 6 12 13 15 6 3 0 3 -15 1 -15 -2 -30 0 -33 5 -3 5
-12 7 -20 4 -8 -4 -13 -10 -10 -14 7 -11 -22 -6 -32 5 -4 4 -2 5 5 1 17 -10
15 -1 -4 14 -8 8 -14 9 -13 4 4 -21 -2 -24 -23 -13 -20 11 -21 10 -11 -2 10
-12 8 -15 -7 -15 -10 0 -17 3 -14 7 2 4 -3 10 -12 13 -10 4 -13 2 -9 -7 4 -6
-1 -3 -9 7 -9 11 -16 14 -16 7 0 -7 -5 -9 -12 -5 -7 4 -8 3 -4 -5 4 -6 13 -8
19 -5 7 4 9 3 5 -1 -12 -12 -58 -15 -58 -4 0 6 4 8 8 5 5 -3 9 1 9 9 0 19 -13
19 -21 0 -3 -8 -10 -15 -15 -15 -6 0 -7 7 -4 17 4 11 3 14 -5 9 -7 -4 -12 -14
-12 -22 0 -8 -4 -12 -10 -9 -5 3 -10 1 -10 -4 0 -6 -8 -3 -18 7 -10 9 -17 24
-14 32 3 13 3 13 -7 0 -7 -10 -6 -19 5 -31 7 -8 14 -20 14 -25 0 -5 -5 -1 -11
9 -6 9 -15 14 -21 11 -7 -4 -8 -2 -4 4 4 7 2 12 -4 12 -7 0 -20 10 -30 22 -15
19 -20 21 -34 9 -9 -8 -15 -19 -13 -25 3 -6 -6 -11 -18 -11 -13 0 -21 3 -19 6
2 4 -3 9 -11 13 -8 3 -17 1 -20 -4 -6 -10 -24 -8 -44 4 -10 7 -12 6 -6 -4 6
-10 3 -12 -13 -8 -15 4 -19 2 -15 -8 3 -8 9 -11 14 -8 21 12 46 11 46 -2 0
-10 -4 -11 -10 -5 -7 7 -16 7 -28 1 -12 -7 -22 -6 -33 5 -9 9 -17 11 -21 5 -8
-13 -46 11 -38 25 4 5 2 7 -2 2 -5 -4 -17 1 -28 10 -20 18 -20 18 -1 -12 12
-19 14 -26 5 -20 -11 6 -13 4 -8 -9 4 -10 3 -15 -3 -11 -6 4 -9 14 -8 22 2 9
-3 18 -11 21 -9 3 -11 0 -6 -9 6 -11 5 -12 -6 -1 -16 15 -33 16 -24 2 4 -6 1
-9 -7 -8 -7 2 -12 -3 -11 -9 2 -7 -2 -13 -7 -13 -13 0 -13 17 0 25 6 4 8 11 4
16 -3 6 -12 3 -21 -8 -8 -10 -12 -12 -8 -5 3 6 0 12 -7 12 -10 0 -9 3 2 11 13
9 13 10 0 6 -8 -2 -15 -10 -15 -18 0 -19 -26 -38 -42 -32 -9 4 -11 0 -7 -11 5
-13 2 -15 -12 -9 -11 3 -23 11 -27 17 -5 7 -7 3 -5 -9 2 -11 -3 -20 -9 -20 -7
0 -13 -3 -13 -7 0 -5 0 -11 0 -15 0 -3 9 2 20 12 11 10 22 16 25 13 3 -3 -6
-13 -20 -22 -21 -14 -29 -15 -41 -5 -13 10 -13 8 -5 -14 6 -15 7 -29 2 -31
-12 -8 -20 4 -15 19 3 7 1 16 -5 20 -7 3 -8 0 -5 -9 5 -14 -4 -20 -27 -18 -3
1 -6 -6 -6 -13 0 -11 4 -12 13 -4 13 10 32 -6 20 -18 -3 -4 -6 -1 -6 7 0 10
-3 10 -15 0 -13 -11 -18 -10 -30 6 -15 19 -15 19 -8 0 4 -13 3 -17 -5 -12 -8
5 -10 2 -6 -8 3 -9 10 -13 15 -10 5 3 6 -2 2 -11 -4 -13 -8 -14 -14 -4 -4 7
-18 14 -31 16 -17 2 -19 1 -8 -6 8 -5 17 -8 20 -6 4 2 7 -2 7 -10 0 -10 -6
-11 -25 -4 -20 8 -23 7 -19 -5 7 -19 -9 -31 -19 -15 -5 8 -3 9 6 4 8 -5 11 -4
7 3 -4 5 -17 7 -30 4 -18 -5 -19 -7 -4 -10 9 -2 17 -8 17 -14 0 -5 -7 -8 -15
-4 -8 3 -15 1 -15 -4 0 -5 -9 -12 -20 -15 -11 -4 -18 -11 -15 -16 4 -5 1 -9
-4 -9 -14 0 -14 13 1 28 8 8 9 12 1 12 -6 0 -13 -5 -15 -11 -2 -5 -11 -11 -20
-12 -9 -2 -22 -8 -30 -15 -8 -6 -19 -8 -23 -4 -5 4 -5 1 -1 -5 4 -7 2 -14 -3
-14 -20 -3 -26 -5 -48 -17 -25 -14 -26 -33 -3 -44 12 -5 12 -7 -2 -7 -9 -1
-22 7 -27 17 -6 10 -11 12 -11 4 0 -7 -5 -10 -12 -6 -7 4 -8 3 -4 -5 4 -6 13
-9 19 -5 7 3 4 -1 -7 -10 -10 -8 -16 -19 -12 -24 3 -5 -1 -9 -9 -9 -8 0 -11 5
-8 10 3 6 1 7 -5 3 -18 -11 -14 -26 6 -26 12 0 11 -4 -8 -13 -14 -8 -24 -19
-22 -26 2 -9 -3 -9 -19 0 -12 6 -19 7 -15 1 3 -6 3 -12 -1 -15 -5 -2 -3 -3 3
-1 6 1 17 -2 25 -8 11 -8 10 -9 -5 -4 -14 5 -17 2 -12 -10 5 -14 4 -15 -7 -5
-20 16 -42 -10 -24 -29 9 -10 9 -11 0 -6 -16 9 -17 -6 -2 -21 8 -8 7 -13 -2
-18 -7 -5 -10 -4 -6 2 4 6 0 16 -8 23 -13 11 -14 10 -9 -5 6 -14 4 -16 -7 -10
-12 7 -12 6 -1 -7 10 -12 10 -18 -2 -27 -11 -9 -16 -9 -22 0 -4 8 -3 9 4 5 8
-5 10 -1 5 9 -4 13 -8 14 -14 4 -4 -7 -3 -22 3 -33 10 -19 9 -19 -4 -8 -13 10
-18 10 -24 1 -4 -7 -3 -9 3 -6 6 4 13 1 16 -7 6 -15 -11 -36 -27 -36 -6 0 -3
7 8 15 18 14 18 14 -1 12 -11 0 -20 -9 -21 -21 0 -10 -7 -23 -14 -27 -7 -5 -8
-9 -2 -9 5 0 15 5 22 12 7 7 12 9 12 5 0 -3 -11 -17 -25 -31 -24 -24 -19 -44
8 -31 6 4 4 0 -6 -9 -11 -8 -25 -12 -32 -10 -7 3 -16 0 -21 -7 -4 -7 -3 -10 3
-6 6 4 13 -2 16 -14 5 -17 3 -18 -10 -7 -15 12 -15 11 -4 -11 10 -17 10 -26 1
-35 -8 -8 -10 -7 -5 5 4 10 2 20 -4 24 -7 3 -8 0 -5 -9 4 -10 1 -16 -7 -16 -8
-1 -3 -8 11 -16 14 -8 17 -13 8 -10 -12 3 -18 0 -18 -9 0 -9 6 -12 18 -9 10 4
13 2 7 -3 -16 -13 -18 -72 -3 -91 11 -15 11 -16 -3 -4 -14 10 -17 9 -22 -9 -4
-16 -2 -19 10 -15 13 5 14 4 3 -9 -7 -8 -16 -13 -19 -10 -4 2 -8 -2 -8 -10 0
-8 5 -13 10 -12 5 1 11 -6 12 -16 3 -15 1 -16 -11 -6 -8 6 -17 9 -21 5 -3 -3
-1 -6 5 -6 7 0 12 -7 12 -16 0 -9 5 -12 13 -8 10 6 10 4 0 -7 -16 -16 -17 -33
-1 -23 7 5 8 3 4 -5 -5 -7 -15 -10 -23 -6 -13 4 -14 3 -3 -10 10 -12 10 -15
-1 -15 -9 0 -10 -3 -4 -8 14 -10 12 -48 -3 -44 -15 3 -16 -10 -1 -25 8 -8 7
-13 -2 -18 -7 -5 -10 -4 -6 2 4 6 0 13 -8 17 -8 3 -17 0 -21 -7 -4 -7 -4 -9 1
-5 5 5 13 -2 20 -15 6 -12 17 -21 24 -19 7 1 10 -2 6 -8 -4 -6 -16 -3 -32 7
l-26 18 19 -30 c16 -24 16 -28 3 -23 -10 4 -16 1 -16 -8 0 -8 6 -13 13 -10 8
3 16 0 20 -6 4 -6 3 -9 -2 -6 -5 3 -13 1 -19 -6 -12 -13 -16 -58 -5 -51 4 3
10 -4 13 -15 3 -11 0 -23 -5 -27 -6 -3 -8 -1 -4 5 3 6 3 13 -2 16 -4 2 -9 -4
-9 -15 -2 -17 8 -24 30 -20 4 0 7 -3 7 -9 0 -5 -6 -10 -14 -10 -8 0 -18 -5
-22 -12 -5 -7 -3 -8 5 -3 9 5 12 1 11 -11 -1 -11 -1 -21 0 -24 1 -3 3 -13 5
-22 3 -15 0 -16 -18 -7 -20 11 -20 10 3 -17 14 -16 18 -23 10 -16 -20 17 -33
15 -26 -4 5 -14 4 -15 -9 -4 -8 7 -12 17 -8 23 3 6 1 7 -6 3 -6 -4 -8 -13 -4
-19 4 -7 9 -20 10 -31 3 -16 1 -17 -12 -6 -9 8 -15 8 -15 2 0 -6 5 -14 10 -17
6 -4 7 -11 4 -17 -5 -7 -11 -5 -20 6 -8 11 -14 13 -19 7 -3 -6 -2 -11 3 -11 6
0 12 -6 15 -14 4 -10 -1 -13 -19 -11 -13 1 -24 -2 -24 -6 0 -5 5 -9 10 -9 6 0
10 -4 10 -10 0 -5 -6 -7 -14 -4 -9 4 -13 -2 -11 -20 2 -15 -1 -24 -6 -20 -5 3
-7 9 -4 14 3 5 0 12 -6 16 -7 4 -9 3 -6 -3 4 -6 0 -14 -9 -17 -8 -3 -12 -10
-9 -16 4 -6 10 -8 14 -6 4 3 13 0 21 -5 13 -9 13 -10 0 -6 -19 5 -50 -10 -50
-25 0 -6 7 -5 18 3 15 12 16 12 5 -2 -7 -9 -10 -18 -7 -22 3 -3 -5 -3 -18 0
-18 4 -20 3 -8 -6 8 -6 11 -11 5 -11 -5 0 -2 -7 8 -14 16 -12 16 -14 2 -20 -9
-3 -13 -2 -10 4 3 6 2 10 -3 10 -5 0 -12 -13 -14 -30 -4 -28 -3 -29 13 -14 16
15 16 14 1 -19 -10 -19 -21 -32 -27 -29 -5 3 -4 -2 4 -11 9 -11 10 -17 2 -17
-6 0 -11 -5 -11 -12 0 -9 3 -9 12 0 15 15 28 16 28 2 0 -6 -5 -9 -12 -8 -7 2
-13 -3 -14 -9 -3 -27 -5 -27 -21 -8 l-16 20 8 -20 c11 -32 14 -56 7 -51 -4 2
-19 -5 -32 -16 -14 -11 -18 -18 -9 -15 9 3 22 1 30 -4 11 -7 10 -9 -6 -9 -14
0 -20 -7 -21 -25 -1 -14 2 -22 7 -19 5 3 6 -2 3 -11 -6 -14 -8 -14 -20 2 -13
17 -14 17 -7 -2 3 -11 10 -26 16 -32 9 -13 -2 -35 -28 -56 -5 -5 1 -6 15 -2
24 6 24 5 6 -9 -19 -15 -19 -16 -1 -16 18 0 18 -1 -1 -15 -19 -15 -19 -15 1
-8 20 6 20 6 2 -15 -18 -20 -18 -21 2 -38 14 -13 17 -21 10 -30 -7 -8 -5 -17
6 -28 9 -9 13 -16 8 -16 -5 0 -15 6 -22 13 -10 10 -12 9 -9 -3 2 -8 8 -18 13
-22 13 -9 14 -30 1 -46 -6 -9 -6 -12 4 -10 7 2 15 -3 18 -11 3 -8 0 -11 -7 -7
-6 4 -11 2 -11 -3 0 -6 5 -11 10 -11 6 0 10 -5 10 -11 0 -5 -4 -8 -8 -5 -5 3
-9 -1 -9 -9 0 -8 4 -12 9 -9 4 3 8 -9 8 -26 0 -17 4 -29 9 -26 12 8 8 -27 -4
-36 -5 -4 0 -8 13 -8 12 0 22 -4 22 -9 0 -6 -9 -8 -20 -6 -12 2 -18 0 -15 -6
4 -5 11 -7 16 -4 5 4 9 -1 9 -10 0 -10 -5 -13 -12 -9 -10 6 -10 5 -1 -7 6 -8
11 -18 11 -22 0 -5 4 -12 8 -15 4 -4 4 -1 -1 7 -6 10 -4 12 4 7 7 -5 9 -16 5
-29 -6 -20 -5 -20 10 -8 14 12 16 12 10 -4 -6 -14 -4 -16 6 -10 9 5 11 4 6 -4
-4 -6 -12 -9 -17 -6 -5 3 -6 -1 -3 -9 3 -9 12 -16 20 -16 8 0 11 -6 7 -17 -5
-12 -3 -14 8 -8 11 6 12 5 2 -5 -10 -10 -8 -19 8 -42 14 -19 19 -37 15 -53 -3
-13 -2 -27 4 -30 5 -3 7 0 4 8 -8 22 12 29 27 10 10 -12 10 -14 2 -9 -8 4 -13
2 -13 -8 0 -8 4 -17 10 -21 5 -3 6 -13 3 -22 -4 -10 -2 -14 4 -10 7 5 9 0 6
-14 -5 -16 -8 -18 -15 -7 -8 10 -9 10 -5 -2 2 -8 11 -14 21 -12 9 2 16 -2 16
-8 0 -5 -4 -10 -8 -10 -5 0 -9 -7 -9 -15 0 -10 4 -12 12 -5 9 7 17 5 26 -7 13
-16 12 -17 -2 -5 -14 10 -18 10 -22 -2 -4 -9 -1 -18 5 -22 7 -5 8 -2 3 6 -5 9
-4 11 4 6 9 -6 9 -11 1 -21 -8 -9 -8 -14 1 -17 6 -2 13 -21 14 -41 2 -26 0
-35 -8 -30 -8 5 -8 2 0 -8 10 -12 10 -18 0 -29 -6 -7 -7 -10 -1 -7 6 3 18 -3
27 -14 16 -18 16 -19 -6 -20 -21 0 -21 -1 -2 -8 22 -9 27 -31 10 -43 -6 -5 -6
-8 3 -8 6 0 12 -5 12 -11 0 -5 -4 -8 -9 -4 -5 3 -13 0 -17 -6 -4 -8 -3 -9 4
-5 8 4 12 0 12 -11 0 -13 3 -14 8 -5 5 8 8 0 8 -21 -1 -26 -5 -33 -16 -29 -13
5 -13 3 -1 -11 7 -9 18 -14 23 -11 6 4 6 -1 -1 -13 -11 -22 -11 -63 1 -63 4 0
4 -7 1 -17 -5 -12 -3 -14 8 -8 11 7 12 6 3 -6 -7 -8 -8 -22 -3 -34 4 -11 8
-14 8 -6 1 8 4 12 7 8 3 -3 2 -12 -2 -19 -10 -15 -13 -49 -4 -43 3 2 12 -5 19
-17 7 -11 8 -17 2 -13 -7 4 -11 -4 -11 -22 0 -22 2 -25 10 -13 5 8 10 10 10 5
0 -6 -6 -17 -12 -24 -10 -11 -10 -13 0 -7 8 5 12 -1 12 -18 0 -14 5 -26 11
-26 8 0 7 -6 -2 -17 -12 -15 -12 -16 4 -10 10 4 16 3 12 -2 -3 -5 2 -17 11
-25 8 -9 10 -16 4 -16 -6 0 -13 7 -16 15 -4 8 -10 12 -16 9 -5 -3 0 -13 10
-22 11 -10 23 -32 26 -50 5 -20 12 -30 19 -26 7 3 4 -1 -6 -9 -16 -13 -16 -15
-2 -21 9 -3 13 -2 10 4 -3 6 -1 10 4 10 13 0 14 -17 2 -24 -13 -8 -6 -42 8
-39 6 2 11 -3 11 -10 0 -8 4 -7 11 3 9 13 10 13 6 0 -2 -8 -10 -14 -16 -13 -6
2 -11 -2 -11 -7 0 -6 5 -10 10 -10 6 0 10 -12 10 -26 0 -14 4 -23 8 -20 5 3
16 -11 25 -30 23 -48 21 -57 -4 -14 -11 19 -17 26 -13 15 4 -11 7 -28 8 -37 0
-9 5 -14 10 -11 5 4 7 -1 3 -10 -8 -21 11 -33 26 -17 10 10 8 11 -8 6 -16 -6
-18 -5 -7 5 9 9 15 10 23 2 8 -8 8 -13 0 -17 -6 -4 -11 -14 -11 -22 0 -10 5
-12 13 -8 8 5 8 2 -2 -9 -8 -10 -9 -17 -3 -17 6 0 15 8 21 18 9 15 10 15 8 -5
0 -12 -5 -19 -9 -17 -4 3 -8 -2 -8 -11 0 -10 5 -13 13 -9 7 5 6 0 -3 -11 -9
-11 -10 -16 -2 -11 8 5 12 1 12 -11 0 -15 2 -16 10 -3 5 8 10 10 10 5 0 -6 -6
-17 -12 -24 -11 -11 -10 -13 4 -8 20 7 34 -8 17 -19 -8 -5 -9 -3 -4 6 5 9 4
11 -4 6 -6 -4 -9 -11 -6 -16 3 -4 2 -10 -2 -13 -11 -5 8 0 32 9 19 7 19 7 3
-9 -17 -18 -15 -47 4 -47 6 0 8 -9 5 -21 -4 -16 -3 -18 7 -9 10 7 17 6 27 -7
9 -11 10 -14 2 -9 -8 4 -13 2 -13 -4 0 -6 -5 -8 -12 -4 -7 4 -8 3 -4 -4 4 -6
12 -9 20 -6 15 6 16 -37 1 -49 -5 -5 1 -5 14 -2 16 5 21 4 16 -4 -4 -7 -1 -18
5 -26 7 -8 9 -15 5 -15 -4 0 -14 8 -21 18 -7 9 -14 13 -14 9 0 -4 12 -19 27
-33 18 -17 21 -23 8 -18 -13 5 -16 4 -11 -4 4 -7 15 -12 24 -13 11 -1 8 -4 -8
-9 l-25 -8 28 -1 c16 -1 26 -5 22 -11 -4 -6 -11 -8 -16 -5 -5 3 -6 -1 -3 -9 3
-9 11 -13 18 -9 6 4 4 -2 -4 -12 -9 -11 -10 -16 -2 -11 7 4 12 1 12 -8 0 -9 5
-16 11 -16 5 0 7 -5 4 -10 -3 -6 0 -10 7 -10 8 -1 6 -6 -6 -15 -12 -9 -15 -15
-7 -15 8 0 11 -6 7 -16 -6 -14 -4 -15 9 -4 13 11 13 15 3 21 -8 6 -9 9 -2 9 6
0 17 -7 24 -15 10 -13 11 -18 1 -28 -10 -9 -11 -8 -6 8 5 16 5 17 -3 5 -6 -8
-9 -17 -6 -21 2 -4 -2 -10 -8 -13 -7 -3 -1 -3 13 -1 23 3 25 0 21 -21 -2 -14
0 -24 7 -24 6 0 11 -5 11 -11 0 -5 -4 -7 -10 -4 -5 3 -10 1 -10 -5 0 -7 8 -9
21 -5 17 6 20 4 13 -6 -5 -8 -9 -20 -10 -27 -2 -10 1 -11 12 -1 11 9 18 9 26
1 14 -14 20 -44 7 -36 -5 3 -6 10 -3 16 5 7 2 8 -6 3 -9 -6 -11 -4 -5 6 8 12
6 12 -8 0 -18 -15 -23 -26 -7 -16 6 3 13 -1 16 -9 7 -19 30 -21 37 -3 2 6 5 1
5 -13 0 -44 9 -65 26 -64 9 1 16 -4 16 -12 0 -8 -5 -14 -12 -14 -6 0 -8 -3 -4
-7 4 -5 15 1 23 12 15 20 15 20 10 -2 -3 -13 0 -26 5 -30 6 -3 8 -2 5 3 -3 6
-2 16 4 24 7 12 9 10 9 -7 0 -13 5 -23 11 -23 15 0 80 -71 74 -81 -3 -4 -1
-10 4 -13 10 -7 9 20 -2 30 -4 4 -7 12 -7 18 0 6 5 3 11 -7 6 -9 15 -15 21
-11 6 4 8 -1 3 -15 -5 -16 -3 -20 9 -15 11 4 16 0 16 -11 0 -12 6 -16 20 -12
23 6 37 -10 34 -40 0 -12 3 -20 8 -17 4 3 6 10 3 15 -3 5 1 6 9 3 9 -3 14 -10
11 -14 -3 -4 2 -10 10 -13 9 -4 12 -1 8 9 -3 7 -1 14 4 14 5 0 9 -9 10 -20 1
-11 -2 -20 -8 -20 -5 0 -9 -5 -9 -11 0 -6 14 0 32 12 17 13 29 18 25 12 -4 -6
0 -16 8 -23 11 -9 12 -16 5 -25 -8 -9 -4 -11 17 -7 22 4 25 2 20 -12 -4 -9 -3
-14 2 -11 5 3 12 1 16 -5 4 -6 12 -7 18 -3 21 13 45 10 40 -4 -4 -9 -9 -10
-18 -3 -8 7 -12 6 -12 -4 0 -8 7 -13 16 -11 9 1 25 -4 36 -11 11 -8 30 -14 43
-14 16 0 21 -4 16 -12 -6 -10 -4 -10 7 -2 11 9 23 6 52 -13 21 -13 35 -27 33
-32 -3 -5 13 -6 35 -4 33 4 40 2 33 -8 -6 -11 -4 -11 10 0 15 13 19 13 26 1 5
-8 7 -17 5 -21 -3 -3 9 -5 25 -4 17 1 30 -2 30 -7 0 -5 9 -6 20 -3 12 4 20 2
20 -5 0 -6 -4 -8 -10 -5 -5 3 -10 -1 -10 -10 0 -12 5 -15 18 -11 14 5 14 4 -2
-9 -12 -9 -15 -15 -7 -15 11 0 11 -3 0 -17 -12 -15 -12 -16 3 -10 12 4 15 2
11 -9 -3 -9 -12 -13 -22 -10 -13 5 -13 4 1 -7 10 -8 15 -17 11 -20 -3 -4 -1
-7 6 -7 7 0 9 -5 6 -10 -4 -6 -10 -8 -15 -5 -8 5 -4 -41 6 -56 2 -4 -1 -11 -7
-15 -8 -4 -7 -9 2 -15 10 -6 11 -9 2 -9 -7 0 -13 -6 -13 -14 0 -8 -6 -17 -12
-20 -7 -3 -4 -4 8 -1 13 4 21 0 21 -8 0 -9 -8 -13 -21 -10 -18 4 -19 3 -4 -6
9 -6 15 -20 13 -31 -2 -11 0 -22 5 -25 11 -7 2 -35 -10 -35 -5 0 -7 9 -5 20 2
12 0 18 -6 15 -5 -4 -7 -11 -4 -16 4 -5 0 -9 -7 -9 -9 0 -10 -2 -2 -8 7 -4 10
-19 9 -35 -2 -15 0 -27 5 -27 4 0 10 -7 13 -14 4 -10 1 -13 -9 -9 -7 3 -14 0
-14 -6 0 -6 5 -11 11 -11 5 0 7 -5 4 -10 -4 -6 -11 -8 -16 -5 -5 3 -6 -1 -3
-9 3 -9 10 -16 15 -16 5 0 9 -5 9 -11 0 -5 -4 -8 -9 -5 -17 11 -19 -19 -3 -37
14 -16 14 -17 0 -12 -12 5 -15 0 -13 -17 2 -13 6 -31 10 -40 4 -10 3 -18 -2
-18 -5 0 -10 -6 -11 -12 0 -7 -3 -23 -6 -36 -3 -13 -1 -20 5 -17 15 10 5 -29
-15 -61 l-19 -29 22 19 c21 19 21 19 18 -2 -2 -12 -7 -25 -12 -29 -4 -5 -5 -2
-1 4 5 9 2 11 -10 6 -14 -5 -13 -8 7 -20 17 -10 18 -13 5 -8 -19 6 -19 5 -2
-14 13 -14 14 -21 5 -27 -7 -4 -10 -3 -6 3 4 6 0 13 -8 16 -11 5 -12 1 -5 -18
5 -14 7 -25 4 -25 -4 0 -1 -6 5 -14 7 -9 8 -17 2 -20 -5 -3 -8 -17 -6 -31 1
-14 -2 -28 -8 -32 -6 -3 -7 -1 -3 5 5 8 1 10 -9 5 -9 -3 -13 -9 -8 -12 5 -3
10 -19 11 -36 4 -52 5 -55 15 -55 5 0 6 8 2 18 -11 28 -11 34 3 37 7 2 8 1 2
-2 -6 -3 -6 -12 1 -26 9 -17 8 -23 -7 -35 -17 -13 -16 -14 16 -8 22 4 30 3 21
-3 -11 -7 -11 -9 0 -14 10 -4 9 -6 -3 -6 -10 -1 -18 -5 -18 -11 0 -6 9 -6 25
0 21 8 29 6 42 -10 14 -16 20 -17 32 -7 14 11 14 10 2 -6 -20 -25 0 -44 23
-22 9 9 16 13 16 8 0 -5 -4 -13 -10 -19 -6 -6 -3 -10 9 -11 14 -1 19 4 16 18
-2 11 0 17 6 13 6 -3 8 -9 5 -12 -4 -3 4 -16 16 -29 15 -16 25 -20 33 -13 9 7
14 6 18 -4 3 -8 14 -13 24 -11 10 2 22 4 27 4 5 1 2 8 -5 18 -13 15 -12 15 11
2 14 -8 28 -18 32 -24 5 -6 8 -5 8 3 0 6 5 12 11 12 5 0 8 -4 5 -8 -3 -5 7 -8
22 -7 18 1 27 7 26 17 -1 11 5 14 20 11 18 -4 19 -3 6 7 -12 10 -11 11 8 7 26
-6 28 1 5 19 -17 12 -16 13 4 9 13 -2 26 1 29 7 4 6 3 8 -3 5 -6 -4 -16 0 -23
8 -11 13 -10 14 4 9 12 -5 15 -2 10 10 -3 9 -11 13 -18 9 -6 -4 -6 0 2 9 10
13 10 17 0 21 -10 4 -10 6 0 6 6 1 12 7 12 15 0 8 4 18 10 21 6 4 7 -1 3 -12
-7 -19 -5 -18 17 11 8 11 10 17 5 14 -6 -4 -19 1 -30 9 -20 15 -20 15 2 9 12
-4 24 -2 29 5 4 8 3 9 -4 5 -17 -10 -16 46 1 63 7 9 7 11 1 8 -7 -4 -14 0 -18
8 -3 8 0 14 6 12 5 -1 12 6 13 16 2 9 -1 17 -6 17 -5 0 -9 15 -9 33 0 21 3 28
9 19 7 -11 9 -10 14 3 5 10 3 14 -4 9 -7 -4 -10 -1 -7 7 3 8 11 13 17 11 7 -1
10 2 6 8 -3 6 -10 8 -14 6 -4 -3 -12 -1 -19 3 -8 4 -5 11 9 20 12 7 18 8 14 2
-3 -6 -2 -11 4 -11 5 0 9 9 8 20 -1 15 -6 19 -22 14 -14 -4 -16 -3 -7 4 8 5
13 13 12 18 -1 5 4 10 12 12 9 2 8 0 -2 -7 -13 -9 -12 -11 4 -11 12 0 16 5 13
15 -4 8 -2 17 3 20 9 6 8 31 -3 41 -4 4 -7 14 -7 23 1 13 3 12 15 -3 8 -11 15
-15 15 -9 0 7 -5 15 -10 18 -6 4 -7 11 -4 17 4 6 2 8 -4 4 -15 -9 -9 48 7 68
12 14 12 16 -1 11 -17 -7 -21 23 -6 42 6 7 7 20 4 29 -5 12 -2 15 10 10 14 -5
15 -4 4 9 -10 12 -10 18 0 30 9 10 9 15 1 15 -6 0 -11 5 -11 11 0 6 7 9 14 6
11 -4 13 -1 9 10 -4 10 -2 14 4 10 5 -3 10 0 10 8 0 8 -4 12 -9 9 -4 -3 -8 4
-8 15 0 11 5 23 10 26 6 3 10 12 10 18 0 7 -4 6 -10 -3 -8 -12 -10 -9 -10 13
0 16 4 26 10 22 6 -3 10 -2 10 3 0 5 -10 14 -22 20 -19 10 -20 11 -4 9 25 -3
33 20 9 26 -16 4 -16 5 1 6 20 1 20 1 0 17 -10 8 -14 13 -8 10 7 -3 15 1 18
10 3 8 2 13 -2 10 -5 -3 -9 1 -9 9 0 8 4 12 9 9 5 -3 7 18 5 48 -3 29 -3 45 0
36 2 -10 9 -18 14 -18 6 0 7 9 3 22 -6 21 -6 21 10 5 22 -21 33 -22 16 -2 -11
13 -10 14 5 9 12 -5 16 -4 11 4 -3 6 -1 14 5 18 8 4 9 3 5 -4 -4 -7 -2 -12 4
-12 6 0 8 -6 4 -13 -4 -6 3 -2 15 11 12 12 25 22 28 22 4 0 2 -5 -5 -12 -7 -7
-12 -17 -12 -23 0 -5 5 -3 10 5 8 12 12 13 19 2 7 -11 9 -10 14 3 5 11 3 14
-6 9 -6 -4 -9 -3 -4 1 9 11 128 15 122 5 -6 -10 21 -7 31 3 4 4 12 7 18 7 6 0
5 -4 -2 -9 -11 -7 -11 -9 2 -14 9 -4 15 -3 15 1 -3 18 2 32 11 32 5 0 7 -8 4
-17 -3 -10 2 -7 11 7 9 14 14 17 11 8 -3 -10 0 -20 6 -24 7 -5 8 -2 3 6 -6 10
-4 12 8 7 9 -3 19 -1 23 5 4 6 3 8 -4 4 -6 -3 -14 -1 -18 6 -4 7 -3 10 1 5 5
-4 17 1 27 10 15 13 19 14 16 3 -2 -9 6 -15 20 -16 26 -2 38 11 21 22 -7 4 -9
3 -6 -3 3 -5 -1 -10 -9 -10 -27 0 4 20 35 22 23 2 28 -1 24 -14 -4 -13 -3 -13
5 -2 6 8 17 11 25 8 11 -4 14 -1 10 8 -3 8 -10 12 -16 8 -6 -3 -7 -1 -3 6 4 6
12 9 17 5 5 -3 16 0 24 6 11 9 15 9 15 1 0 -6 -5 -11 -11 -11 -5 0 -7 -5 -3
-12 5 -8 11 -5 17 10 6 12 14 22 19 22 5 0 7 -4 3 -9 -3 -5 -1 -13 5 -16 6 -4
10 -3 9 2 -4 25 1 35 14 24 14 -11 27 -5 27 13 0 6 -4 5 -9 -2 -7 -11 -9 -11
-14 1 -4 11 2 14 23 12 15 -1 33 -6 40 -10 9 -6 11 -4 5 5 -6 10 -4 12 9 7 10
-4 15 -3 11 3 -3 6 -1 10 5 10 6 0 15 10 20 23 7 18 9 18 9 4 1 -10 6 -15 11
-12 6 4 8 11 5 16 -4 5 6 9 22 9 18 0 24 3 15 9 -10 6 -9 11 4 22 12 9 15 10
10 2 -4 -7 -2 -13 3 -13 6 0 11 5 11 11 0 6 6 9 14 6 10 -4 14 0 11 13 -3 13
1 17 11 13 7 -3 11 -10 7 -16 -3 -6 -1 -7 6 -3 9 6 9 11 1 21 -8 10 -8 15 1
21 8 5 9 3 4 -6 -5 -8 -3 -11 6 -8 8 3 13 10 12 15 -1 5 3 10 10 11 28 2 48 9
47 15 0 4 0 10 0 13 0 4 -6 1 -13 -5 -10 -8 -14 -7 -14 4 0 7 3 13 6 13 13 -2
41 15 36 22 -3 5 -1 11 4 14 5 4 13 1 17 -5 5 -8 3 -9 -6 -4 -9 5 -11 4 -6 -3
10 -16 9 -16 41 20 18 20 22 29 11 25 -10 -4 -15 -3 -11 3 3 6 16 10 28 10 18
0 19 2 7 10 -13 8 -12 10 3 10 10 0 22 11 27 25 5 14 12 25 15 25 4 0 3 -5 -1
-11 -4 -7 -1 -10 6 -7 21 7 23 26 3 32 -10 2 -1 3 19 2 35 -3 36 -2 28 20 -6
15 -5 26 2 30 6 4 8 3 4 -4 -4 -6 1 -10 12 -9 14 1 18 7 15 22 -4 16 -3 17 6
5 9 -13 11 -11 11 7 0 12 5 25 12 29 7 5 8 3 3 -5 -6 -10 -3 -11 14 -2 12 7
26 9 31 6 5 -3 11 -1 14 4 4 5 -5 8 -19 6 -14 -1 -28 2 -32 8 -3 6 -1 7 5 3 7
-4 12 -2 12 4 0 6 5 8 10 5 10 -6 11 -3 14 34 0 11 5 23 10 28 5 5 6 3 2 -4
-4 -8 -2 -13 6 -13 10 0 9 -3 -2 -11 -13 -9 -13 -10 0 -6 10 2 14 14 13 32 -2
26 -1 27 12 9 13 -18 13 -17 11 9 -3 24 -1 27 18 21 20 -6 19 -5 -3 15 -13 11
-20 21 -15 21 6 0 16 -6 23 -12 10 -11 12 -10 9 2 -2 8 3 14 10 12 8 -1 11 2
6 10 -4 7 -9 23 -10 36 -3 23 -2 23 11 6 15 -20 17 -17 19 30 1 17 7 31 16 33
13 4 13 3 0 -6 -12 -8 -13 -12 -2 -23 8 -7 13 -8 12 -3 -2 6 -1 13 0 18 6 19
5 33 -5 39 -6 5 -2 8 8 8 10 0 15 5 12 10 -3 6 1 10 9 10 8 0 18 5 22 11 4 8
-1 9 -17 4 -21 -7 -22 -6 -10 9 8 9 16 14 19 11 3 -3 11 0 18 6 10 8 10 15 1
29 -14 23 0 41 14 20 9 -13 10 -12 5 2 -3 10 -1 20 5 23 5 4 7 10 4 15 -3 5 3
14 12 20 16 9 15 10 -5 5 -22 -6 -23 -5 -12 14 6 12 8 26 4 32 -5 8 -1 8 14 0
17 -9 19 -8 15 9 -3 11 -10 17 -16 13 -6 -3 -7 -1 -3 6 4 6 12 8 18 5 7 -5 9
0 6 14 -3 12 0 26 7 32 8 6 12 20 10 31 -2 11 0 17 5 14 5 -3 7 -14 5 -25 -2
-12 0 -18 5 -15 4 3 7 16 5 30 -3 28 4 31 25 13 8 -7 6 -3 -4 10 -19 22 -19
22 0 22 18 1 18 1 1 11 -14 8 -16 14 -6 25 6 8 19 14 27 14 13 0 12 3 -3 14
-18 13 -18 14 3 12 12 0 21 4 20 9 -2 6 -9 9 -18 7 -8 -2 -1 6 16 17 38 23 48
37 34 46 -5 3 -10 11 -10 17 0 6 7 5 17 -3 10 -8 14 -9 10 -2 -4 7 0 17 10 23
16 10 16 10 -3 5 -14 -3 -21 -1 -21 8 0 9 8 13 21 9 21 -4 21 -4 1 11 -20 16
-20 16 2 12 25 -4 40 10 22 21 -8 4 -9 3 -5 -4 5 -8 1 -10 -10 -5 -15 5 -15 7
0 15 9 5 21 6 26 3 6 -4 7 1 3 11 -4 11 -3 15 4 11 13 -8 12 11 -1 31 -4 7 -5
16 -2 19 3 4 6 1 6 -5 0 -7 5 -12 10 -12 7 0 7 7 0 21 -11 19 -10 20 10 9 13
-7 20 -8 17 -3 -4 6 2 21 11 34 9 13 17 33 17 44 1 27 14 47 26 39 5 -3 16 0
24 6 18 15 20 45 3 34 -7 -4 -8 -3 -4 5 6 9 11 9 24 -1 13 -11 15 -10 9 4 -4
11 -2 17 6 15 7 -1 12 8 11 20 0 12 3 20 7 17 4 -2 10 2 13 8 3 7 4 2 1 -12
-5 -25 -5 -25 6 -3 7 13 16 23 21 23 5 0 6 5 3 10 -3 6 -1 10 4 10 6 0 11 -5
11 -12 0 -6 3 -8 6 -5 4 4 2 12 -4 20 -7 8 -7 18 -2 27 7 10 10 11 10 3 0 -7
8 -13 18 -13 10 0 13 3 6 8 -15 10 -13 39 3 39 8 0 10 -4 3 -12 -7 -8 -5 -12
4 -12 15 0 16 14 2 35 -4 7 -5 16 -2 19 3 4 6 1 6 -5 0 -7 8 -12 18 -12 14 0
15 2 2 10 -13 8 -13 10 -1 10 24 0 70 50 63 69 -5 14 -4 14 13 1 17 -14 18
-14 6 9 -12 22 -12 23 12 19 19 -4 24 -1 19 10 -4 11 -1 13 9 7 11 -6 12 -5 2
6 -19 19 -16 31 5 25 13 -4 19 -1 19 9 0 9 -6 14 -14 11 -10 -4 -10 -1 0 14 6
11 15 20 20 20 4 0 5 -4 2 -10 -3 -5 -1 -10 6 -10 7 0 9 8 6 21 -5 17 -2 20
14 16 16 -4 17 -2 8 14 -5 10 -6 19 -1 19 5 0 8 11 7 25 -2 16 1 23 8 18 7 -4
8 0 3 13 -6 15 -5 17 5 7 7 -7 17 -13 22 -13 4 0 5 6 0 13 -11 18 -13 38 -2
31 8 -5 13 10 10 29 -1 5 3 6 8 2 6 -3 8 -12 4 -20 -3 -8 0 -15 5 -15 6 0 9 9
7 19 -2 11 3 25 11 31 7 7 12 15 9 19 -9 16 -13 61 -4 56 9 -6 13 13 10 45 -1
11 1 10 10 -3 8 -14 7 -24 -4 -41 -11 -16 -12 -27 -5 -37 8 -11 9 -11 5 2 -3
9 3 26 14 37 12 14 15 23 8 28 -8 4 -7 9 2 15 9 5 10 9 3 9 -7 0 -14 7 -18 15
-4 13 -2 14 14 5 16 -9 18 -8 14 5 -4 8 -11 15 -18 15 -6 0 -3 5 7 11 9 6 15
14 12 19 -3 4 2 11 11 14 8 3 13 10 9 15 -3 5 -1 12 5 16 6 4 7 11 4 17 -4 7
-2 8 5 4 9 -6 9 -11 0 -22 -8 -10 -8 -14 0 -14 6 0 11 5 11 11 0 5 6 7 13 3 9
-5 9 -4 0 6 -9 9 -9 19 -2 33 6 11 7 17 2 14 -4 -3 -8 5 -8 18 0 19 3 21 19
13 12 -7 16 -7 12 0 -3 6 -3 12 1 15 5 2 2 2 -6 0 -12 -3 -11 0 2 15 22 24 22
38 0 21 -16 -12 -17 -12 -6 2 7 9 9 19 5 24 -4 4 4 4 18 0 25 -7 25 -7 5 10
-11 9 -15 14 -9 11 7 -3 14 1 17 8 3 8 1 16 -6 19 -6 2 -4 6 5 9 12 5 15 1 13
-17 -1 -14 2 -22 7 -19 5 3 7 12 4 19 -3 8 2 19 10 26 10 8 11 15 3 25 -7 9
-7 19 1 33 10 20 6 26 -14 22 -5 -1 -4 5 3 13 17 20 31 12 26 -14 -2 -11 0
-20 6 -20 5 0 7 10 5 23 -2 12 0 32 5 43 4 12 5 25 1 28 -9 9 -10 46 -1 40 4
-2 10 0 14 6 3 5 1 10 -5 10 -6 0 -8 5 -5 10 4 6 10 8 14 6 6 -4 7 28 1 44 -1
3 -2 8 -1 13 0 4 -4 7 -11 7 -6 0 -3 6 7 14 11 8 24 12 29 9 5 -4 6 -1 2 6 -4
6 -12 8 -18 5 -6 -4 -8 -2 -4 4 3 5 0 13 -6 16 -7 3 0 2 17 -1 28 -6 29 -6 12
11 -22 22 -22 30 1 21 14 -5 15 -4 5 6 -15 15 -17 33 -3 24 6 -3 10 -1 10 4 0
6 -5 11 -11 11 -6 0 -8 8 -4 19 3 11 1 22 -5 26 -12 8 -4 25 13 25 7 0 6 -4
-3 -11 -12 -9 -12 -10 3 -5 10 3 21 6 25 6 3 0 -3 7 -14 16 -16 13 -16 15 -1
10 9 -3 17 -1 17 4 0 6 -7 10 -15 10 -12 0 -13 5 -7 18 5 9 8 23 6 30 -1 7 0
8 3 2 2 -5 9 -10 14 -10 6 0 5 8 -1 20 -7 13 -7 20 -1 20 6 0 7 7 4 17 -4 10
-2 14 5 9 6 -3 14 -1 18 5 4 7 3 9 -4 5 -17 -10 -25 13 -10 31 11 14 11 16 -1
8 -11 -6 -13 -4 -8 7 3 9 -1 25 -9 36 -10 15 -11 23 -3 28 8 5 9 3 4 -7 -8
-12 -6 -12 8 0 22 18 22 20 -8 17 -14 -2 -30 3 -36 10 -8 10 -6 12 10 9 12 -2
19 0 16 5 -3 4 1 11 7 14 7 3 2 3 -11 0 -21 -6 -23 -4 -19 20 4 18 2 23 -6 17
-7 -6 -18 0 -30 17 -11 14 -14 22 -8 18 7 -4 10 1 9 13 -1 16 -4 18 -16 8 -12
-10 -13 -9 -6 2 12 20 15 62 4 55 -5 -3 -9 -1 -9 4 0 5 -10 14 -22 20 l-23 11
23 0 c12 1 22 5 22 10 0 4 -10 8 -22 7 -17 -1 -22 4 -20 18 2 10 -1 16 -6 12
-5 -3 -9 1 -9 9 0 11 4 12 14 3 7 -6 16 -8 20 -4 3 3 1 6 -5 6 -7 0 -12 9 -12
20 0 11 -5 20 -11 20 -8 0 -8 4 0 14 10 11 8 17 -6 26 -16 10 -16 11 -1 6 10
-3 20 -1 23 5 4 5 3 9 -2 8 -20 -4 -24 2 -12 18 10 11 10 14 2 9 -7 -4 -13 -4
-14 1 0 4 -2 18 -3 31 -2 13 3 22 11 22 8 0 12 4 8 10 -3 5 -12 7 -19 4 -9 -4
-13 3 -13 20 0 14 2 24 6 22 4 -3 7 4 7 14 0 14 -3 16 -13 8 -8 -6 -16 -8 -20
-4 -3 3 -2 6 4 6 6 0 10 11 9 24 0 13 -4 22 -8 19 -5 -2 -8 2 -8 9 0 10 -3 9
-11 -2 -9 -13 -10 -13 -6 0 2 8 11 14 21 12 9 -2 16 2 16 8 0 6 -4 8 -10 5 -5
-3 -10 -1 -10 5 0 6 -5 8 -12 4 -8 -5 -7 0 2 11 9 11 10 16 3 11 -8 -4 -13 -1
-13 9 0 9 5 13 10 10 6 -3 10 -2 10 3 0 6 -7 13 -16 16 -8 3 -12 2 -9 -3 3 -5
0 -13 -6 -17 -8 -4 -9 -3 -5 4 4 7 2 12 -4 12 -7 0 -6 5 2 14 7 8 18 11 23 8
6 -3 4 2 -4 11 -14 18 -26 23 -16 8 3 -5 1 -13 -5 -16 -6 -4 -9 -1 -8 7 2 7
-3 12 -11 10 -12 -3 -12 0 -1 12 15 19 24 21 14 4 -5 -7 -3 -8 5 -3 9 5 10 10
2 18 -7 7 -7 15 2 26 11 14 10 14 -5 2 -10 -7 -15 -18 -11 -24 3 -5 1 -7 -4
-4 -6 4 -8 22 -3 47 5 30 4 38 -4 31 -8 -7 -17 0 -28 19 -12 21 -13 32 -6 36
6 4 8 3 5 -3 -4 -6 1 -17 11 -24 15 -12 16 -12 6 1 -6 8 -10 23 -9 33 2 9 -1
15 -6 11 -5 -3 -9 0 -9 6 0 6 -5 8 -12 4 -7 -5 -8 -3 -2 7 12 20 14 40 3 33
-5 -3 -6 -11 -3 -17 4 -7 3 -8 -2 -4 -5 5 -9 14 -9 20 -1 7 -6 11 -12 10 -8
-2 -9 7 -3 27 9 30 7 32 -20 34 -8 1 -13 6 -10 11 3 6 10 9 15 7 6 -1 2 4 -7
11 -25 20 -22 30 5 16 17 -9 19 -9 11 0 -6 7 -19 14 -28 15 -29 4 -37 28 -18
51 9 11 10 14 2 8 -20 -18 -31 -16 -23 4 5 12 3 14 -7 8 -10 -6 -12 -4 -7 9 5
11 3 15 -5 10 -8 -5 -9 -2 -5 9 3 9 3 16 -1 16 -23 -4 -34 3 -28 17 5 12 1 14
-17 9 -20 -5 -20 -5 3 9 l25 14 -27 7 c-16 4 -25 11 -22 16 3 5 10 7 15 4 5
-4 6 2 2 11 -4 11 -8 13 -11 6 -4 -14 -28 -16 -37 -2 -4 6 1 7 12 4 17 -5 17
-5 1 9 -10 8 -18 26 -18 41 0 19 -4 25 -12 20 -8 -5 -8 -1 1 10 12 14 12 19 2
26 -8 4 -10 13 -6 20 5 9 4 11 -4 6 -6 -4 -9 -16 -6 -27 4 -10 2 -19 -3 -19
-11 0 -9 33 3 65 8 20 8 20 -11 0 -10 -12 -16 -16 -12 -10 17 26 -8 73 -42 79
-14 2 -26 5 -28 5 -1 1 2 10 8 20 14 27 -8 40 -26 16 -12 -16 -13 -16 -11 4 1
11 8 21 17 22 10 0 9 3 -5 8 -25 10 -36 5 -29 -13 3 -8 1 -17 -5 -21 -7 -3 -8
0 -5 9 3 9 1 16 -6 16 -6 0 -9 4 -6 9 3 4 -4 17 -17 27 -18 16 -19 16 -8 2 12
-16 11 -18 -3 -18 -10 0 -14 -5 -11 -10 5 -8 12 -7 23 2 15 12 16 11 3 -5 -9
-11 -18 -14 -24 -8 -5 5 -16 7 -23 4 -9 -3 -14 2 -14 13 0 14 -2 16 -9 6 -4
-8 -11 -13 -15 -13 -19 3 -25 -1 -29 -16 -4 -16 -5 -16 -6 1 -1 11 -6 16 -15
13 -7 -3 -19 0 -26 6 -10 9 -11 9 -6 0 5 -9 0 -13 -13 -13 -12 0 -21 -5 -21
-11 0 -5 -5 -7 -11 -3 -8 4 -7 9 2 16 11 7 9 9 -6 5 -11 -2 -26 2 -33 10 -10
10 -10 13 -1 13 7 0 9 3 6 6 -4 4 -14 1 -23 -7 -9 -7 -26 -14 -37 -16 -17 -2
-19 -1 -7 6 8 5 17 8 20 6 4 -2 7 3 7 11 0 9 -4 11 -10 5 -6 -6 -22 -1 -43 11
-29 17 -37 18 -51 7 -14 -12 -16 -12 -11 2 4 9 -2 20 -13 28 -11 6 -17 17 -13
23 4 6 3 8 -4 4 -6 -3 -13 -2 -17 3 -3 6 -15 7 -28 2 -19 -8 -23 -5 -24 12 -1
12 3 28 10 37 6 8 0 5 -14 -7 -22 -20 -28 -21 -44 -10 -14 11 -15 16 -5 22 8
5 11 4 7 -2 -4 -6 0 -13 8 -17 8 -3 15 -1 15 4 0 14 -23 25 -44 21 -11 -1 -16
2 -12 8 4 6 0 11 -10 11 -14 0 -14 3 -4 15 7 9 10 18 6 22 -3 3 -6 2 -6 -4 0
-6 -11 -10 -25 -10 -14 0 -25 3 -25 8 0 5 -5 9 -11 9 -5 0 -8 -4 -5 -8 3 -5
-2 -9 -10 -9 -10 0 -11 4 -4 11 5 5 10 14 10 20 0 6 -5 5 -12 -2 -15 -15 -28
-15 -28 -1 0 5 6 7 13 3 8 -5 7 -2 -2 9 -8 10 -16 15 -19 13 -2 -3 -13 -1 -24
5 -17 9 -18 8 -6 -10 10 -16 15 -18 28 -8 13 11 13 10 1 -6 -15 -18 -15 -18
-28 0 -7 10 -21 27 -31 38 -9 11 -16 23 -15 27 2 4 -6 5 -17 3 -11 -2 -20 1
-20 6 0 6 -7 6 -19 -1 -28 -15 -33 -13 -26 10 4 11 2 20 -4 20 -6 0 -11 -7
-11 -15 0 -8 -4 -15 -10 -15 -5 0 -7 6 -4 14 3 8 0 17 -5 21 -6 3 -9 10 -6 15
3 5 0 12 -6 16 -7 4 -9 3 -6 -3 3 -5 -3 -17 -14 -26 -11 -10 -17 -23 -13 -29
4 -7 3 -8 -5 -4 -6 4 -8 12 -5 18 4 6 8 21 10 34 2 22 1 22 -21 8 -26 -17 -66
-26 -62 -14 1 4 -2 8 -8 8 -5 0 -9 -4 -7 -9 1 -5 -2 -9 -7 -9 -6 0 -9 9 -8 19
0 11 5 17 9 15 4 -3 8 0 8 6 0 7 -8 9 -21 5 -14 -5 -19 -3 -15 3 3 6 1 14 -5
18 -8 4 -9 3 -5 -4 4 -7 1 -12 -9 -12 -10 0 -13 -5 -9 -12 5 -9 2 -9 -9 1 -20
16 -23 2 -4 -19 10 -12 9 -12 -5 -1 -22 16 -22 22 -2 47 15 19 16 19 9 -1 -5
-15 -3 -17 6 -8 17 17 1 37 -17 22 -8 -6 -14 -7 -14 -2 0 5 -24 8 -52 7 -72
-2 -72 -2 -59 -18 10 -12 9 -14 -6 -12 -11 2 -17 10 -15 22 3 15 1 16 -12 5
-9 -8 -24 -10 -38 -5 -36 12 -49 13 -42 3 3 -5 9 -7 13 -5 4 3 13 1 21 -4 10
-6 3 -8 -23 -6 -20 2 -43 9 -51 15 -9 8 -13 7 -13 -4 0 -8 4 -12 8 -10 3 3 13
-3 20 -12 12 -15 12 -16 -1 -8 -25 15 -42 15 -36 -1 8 -22 -2 -17 -15 7 -9 17
-8 20 2 14 7 -5 10 -4 5 3 -8 14 -36 4 -32 -11 1 -7 1 -9 -1 -4 -3 4 -10 4
-15 1 -7 -4 -8 -2 -4 4 4 7 1 12 -9 12 -10 0 -13 -5 -9 -12 6 -10 5 -10 -7 -1
-8 6 -18 12 -24 12 -5 1 -9 6 -7 11 2 8 -6 15 -9 8z m351 -19 c0 -5 5 -9 11
-9 5 0 8 4 5 9 -4 5 2 8 11 6 10 -2 22 -4 27 -4 5 -1 3 -7 -3 -14 -6 -8 -9
-16 -6 -19 3 -2 -2 -5 -10 -5 -11 0 -12 4 -5 11 16 16 12 30 -5 16 -11 -9 -18
-10 -28 -1 -8 6 -16 8 -19 5 -3 -3 -8 -1 -11 3 -3 5 3 10 14 10 10 1 19 -2 19
-8z m-1362 -20 c-2 -3 4 -14 12 -24 14 -18 14 -18 -12 -1 -15 10 -25 22 -22
28 6 10 28 7 22 -3z m1039 -4 c0 -8 -4 -15 -9 -15 -10 0 -11 14 -1 23 9 10 10
9 10 -8z m-1130 -12 c-4 -3 -2 -12 5 -20 8 -11 7 -12 -6 -7 -9 3 -16 9 -16 13
0 9 11 21 18 21 3 0 2 -3 -1 -7z m1583 -7 c0 -2 -7 -7 -16 -10 -8 -3 -12 -2
-9 4 6 10 25 14 25 6z m-1735 -16 c3 -5 1 -10 -4 -10 -6 0 -11 5 -11 10 0 6 2
10 4 10 3 0 8 -4 11 -10z m655 6 c0 -2 -8 -10 -17 -17 -16 -13 -17 -12 -4 4
13 16 21 21 21 13z m1194 -9 c-3 -8 -12 -14 -21 -14 -13 0 -13 2 3 14 10 7 19
13 21 13 1 0 0 -6 -3 -13z m-2000 -6 c4 -5 -3 -7 -14 -4 -23 6 -26 13 -6 13 8
0 17 -4 20 -9z m536 -1 c0 -5 -5 -10 -11 -10 -5 0 -7 5 -4 10 3 6 8 10 11 10
2 0 4 -4 4 -10z m389 -23 c0 -8 -2 -8 -6 1 -4 9 -8 10 -18 2 -10 -8 -15 -8
-21 1 -4 7 -3 9 4 5 6 -3 13 -2 17 4 8 13 25 3 24 -13z m1125 2 c-3 -5 -10 -7
-15 -3 -5 3 -7 10 -3 15 3 5 10 7 15 3 5 -3 7 -10 3 -15z m86 -33 c0 -3 -4 -8
-10 -11 -5 -3 -10 -1 -10 4 0 6 5 11 10 11 6 0 10 -2 10 -4z m30 -11 c7 -9 8
-15 2 -15 -5 0 -12 7 -16 15 -3 8 -4 15 -2 15 2 0 9 -7 16 -15z m-2587 -171
c-2 -7 -11 -10 -19 -7 -9 3 -14 0 -12 -8 2 -8 -3 -13 -9 -11 -7 1 -13 -3 -13
-10 0 -6 -3 -8 -7 -5 -9 9 34 54 51 54 8 0 12 -6 9 -13z m2946 -38 c17 -18 19
-26 10 -31 -7 -5 -10 -4 -7 1 3 5 0 15 -8 22 -8 7 -14 10 -14 7 0 -3 -5 -3
-10 0 -6 4 -8 11 -5 16 8 12 8 12 34 -15z m-3009 -30 c-1 -6 -7 0 -15 14 -8
14 -14 19 -15 13 0 -7 -8 -13 -17 -13 -15 0 -14 2 3 15 17 12 20 12 32 -2 6
-9 12 -22 12 -27z m3099 -20 c15 -8 20 -16 12 -20 -6 -4 -11 -2 -11 3 0 6 -5
11 -11 11 -5 0 -8 -4 -5 -9 7 -11 -20 -8 -31 3 -4 4 -3 7 2 6 21 -5 29 1 15
10 -22 15 1 11 29 -4z m86 -36 c3 -5 1 -10 -4 -10 -6 0 -11 5 -11 10 0 6 2 10
4 10 3 0 8 -4 11 -10z m186 -17 c12 -16 12 -17 -2 -6 -9 7 -20 9 -24 5 -5 -4
-5 -1 -1 6 9 16 11 15 27 -5z m-65 0 c-2 -3 -6 -3 -9 -1 -3 2 -15 -6 -28 -17
l-24 -20 18 21 c9 11 24 21 32 21 8 0 13 -2 11 -4z m224 -17 c0 -3 -4 -8 -10
-11 -5 -3 -10 -1 -10 4 0 6 5 11 10 11 6 0 10 -2 10 -4z m-3717 -70 c4 -10 1
-13 -8 -9 -8 3 -12 9 -9 14 7 12 11 11 17 -5z m3768 -3 c8 -9 9 -14 2 -10 -6
4 -13 4 -16 0 -2 -5 -2 -3 -1 4 2 6 -5 14 -14 16 -15 4 -15 5 -1 6 9 0 23 -7
30 -16z m254 -473 c-3 -5 -12 -10 -18 -10 -7 0 -6 4 3 10 19 12 23 12 15 0z
m-4255 -384 c0 -2 -7 -7 -16 -10 -8 -3 -12 -2 -9 4 6 10 25 14 25 6z m-9 -149
c-10 -9 -11 -8 -5 6 3 10 9 15 12 12 3 -3 0 -11 -7 -18z m4516 -320 c-5 -17
-22 -12 -22 8 0 11 -6 19 -13 17 -8 -1 -11 2 -7 8 8 13 47 -18 42 -33z m-4682
-87 c3 -6 -1 -7 -9 -4 -18 7 -21 14 -7 14 6 0 13 -4 16 -10z m4735 -320 c0 -5
-5 -10 -11 -10 -5 0 -7 5 -4 10 3 6 8 10 11 10 2 0 4 -4 4 -10z m-5 -59 c3 -5
2 -12 -3 -15 -5 -3 -9 1 -9 9 0 17 3 19 12 6z m-4820 -21 c4 -6 -1 -7 -11 -3
-13 5 -15 3 -9 -7 5 -9 4 -11 -4 -6 -6 4 -9 12 -6 17 8 12 22 12 30 -1z m4805
-176 c0 -8 -19 -13 -24 -6 -3 5 1 9 9 9 8 0 15 -2 15 -3z m-50 -238 c0 -11
-19 -15 -25 -6 -3 5 1 10 9 10 9 0 16 -2 16 -4z m-4635 -134 c-3 -3 -11 0 -18
7 -9 10 -8 11 6 5 10 -3 15 -9 12 -12z m4426 -335 c-1 -12 -15 -9 -19 4 -3 6
1 10 8 8 6 -3 11 -8 11 -12z m-4316 -36 c3 -5 2 -12 -3 -15 -5 -3 -9 1 -9 9 0
17 3 19 12 6z m4150 -240 c3 -5 2 -12 -3 -15 -5 -3 -9 1 -9 9 0 17 3 19 12 6z
m-69 -98 c-15 -12 -32 -23 -39 -23 -7 0 0 8 16 18 15 10 25 21 22 24 -3 2 2 5
12 5 12 0 9 -6 -11 -24z m-308 -348 c-3 -3 -9 2 -12 12 -6 14 -5 15 5 6 7 -7
10 -15 7 -18z m32 21 c0 -3 -4 -8 -10 -11 -5 -3 -10 -1 -10 4 0 6 5 11 10 11
6 0 10 -2 10 -4z m-3630 -111 c0 -2 -6 -5 -13 -8 -8 -3 -14 1 -14 8 0 7 6 11
14 8 7 -3 13 -6 13 -8z m3560 0 c-7 -9 -15 -13 -19 -10 -3 3 1 10 9 15 21 14
24 12 10 -5z m-68 -157 c-14 -14 -44 -20 -36 -7 3 5 10 7 15 4 5 -4 9 -1 9 4
0 6 5 11 12 11 9 0 9 -3 0 -12z m-168 -379 c-3 -5 -10 -7 -15 -3 -5 3 -7 10
-3 15 3 5 10 7 15 3 5 -3 7 -10 3 -15z m-14 -63 c0 -11 -19 -15 -25 -6 -3 5 1
10 9 10 9 0 16 -2 16 -4z m-2832 -451 c2 -1 -8 -2 -21 -2 -13 0 -24 5 -24 13
0 10 5 10 21 2 12 -6 22 -12 24 -13z m83 -72 c13 -16 12 -17 -3 -4 -17 13 -22
21 -14 21 2 0 10 -8 17 -17z m2284 -82 c3 -5 2 -12 -3 -15 -5 -3 -9 1 -9 9 0
17 3 19 12 6z m-1971 -167 c3 -8 2 -12 -4 -9 -6 3 -10 10 -10 16 0 14 7 11 14
-7z m1666 -53 c0 -14 -29 -21 -36 -9 -4 6 -3 8 4 4 6 -3 13 -2 17 4 8 12 15
13 15 1z m-1420 -62 c0 -6 -4 -7 -10 -4 -5 3 -10 11 -10 16 0 6 5 7 10 4 6 -3
10 -11 10 -16z m133 -19 c3 6 5 6 3 -1 -3 -18 -36 -20 -36 -2 0 12 3 13 14 4
10 -8 16 -9 19 -1z m541 -346 c3 -8 2 -12 -4 -9 -6 3 -10 10 -10 16 0 14 7 11
14 -7z m1 -53 c3 -5 2 -12 -3 -15 -5 -3 -9 1 -9 9 0 17 3 19 12 6z m-499 -53
c5 -7 3 -8 -6 -3 -10 6 -12 4 -6 -11 5 -14 4 -16 -5 -7 -6 6 -8 16 -5 22 9 14
13 14 22 -1z m470 -285 c-2 -9 -9 -19 -17 -21 -11 -3 -11 -1 1 7 8 6 11 11 7
11 -5 0 -5 5 -2 10 9 15 14 12 11 -7z m-48 -220 c11 -19 9 -20 -10 -15 -13 3
-17 7 -11 9 7 3 9 12 6 21 -8 22 1 13 15 -15z m-221 -320 c1 -24 0 -25 -6 -8
-7 17 -6 35 2 35 2 0 3 -12 4 -27z m-37 -4 c0 -6 -4 -7 -10 -4 -5 3 -10 11
-10 16 0 6 5 7 10 4 6 -3 10 -11 10 -16z"/>
<path d="M4251 8564 c0 -11 3 -14 6 -6 3 7 2 16 -1 19 -3 4 -6 -2 -5 -13z"/>
<path d="M4276 8558 c3 -5 10 -6 15 -3 13 9 11 12 -6 12 -8 0 -12 -4 -9 -9z"/>
<path d="M4376 8535 c4 -8 8 -15 10 -15 2 0 4 7 4 15 0 8 -4 15 -10 15 -5 0
-7 -7 -4 -15z"/>
<path d="M4692 8541 c4 -13 18 -16 19 -4 0 4 -5 9 -11 12 -7 2 -11 -2 -8 -8z"/>
<path d="M6140 8542 c0 -5 7 -15 15 -22 8 -7 15 -9 15 -6 0 4 -7 14 -15 22 -8
9 -15 11 -15 6z"/>
<path d="M6177 8539 c7 -7 15 -10 18 -7 3 3 -2 9 -12 12 -14 6 -15 5 -6 -5z"/>
<path d="M4121 8524 c0 -11 3 -14 6 -6 3 7 2 16 -1 19 -3 4 -6 -2 -5 -13z"/>
<path d="M4160 8529 c0 -5 5 -7 10 -4 6 3 10 8 10 11 0 2 -4 4 -10 4 -5 0 -10
-5 -10 -11z"/>
<path d="M5417 8533 c-10 -9 -9 -23 1 -23 5 0 9 7 9 15 0 17 -1 18 -10 8z"/>
<path d="M5280 8521 c0 -6 4 -13 10 -16 6 -3 7 1 4 9 -7 18 -14 21 -14 7z"/>
<path d="M6316 8473 c-6 -14 -5 -15 5 -6 7 7 10 15 7 18 -3 3 -9 -2 -12 -12z"/>
<path d="M3570 8121 c0 -7 -5 -9 -12 -5 -7 5 -8 3 -3 -5 5 -9 10 -10 18 -2 6
6 8 14 4 18 -4 3 -7 1 -7 -6z"/>
<path d="M7265 8080 c-2 -3 5 -6 15 -7 11 -1 22 2 24 5 3 4 -4 8 -15 8 -11 0
-22 -3 -24 -6z"/>
<path d="M7380 7880 c0 -6 7 -10 15 -10 8 0 15 2 15 4 0 2 -7 6 -15 10 -8 3
-15 1 -15 -4z"/>
<path d="M7516 7658 c3 -4 9 -8 15 -8 5 0 9 4 9 8 0 5 -7 9 -15 9 -8 0 -12 -4
-9 -9z"/>
<path d="M3330 7640 c-9 -6 -10 -10 -3 -10 6 0 15 5 18 10 8 12 4 12 -15 0z"/>
<path d="M3326 7593 c-6 -14 -5 -15 5 -6 7 7 10 15 7 18 -3 3 -9 -2 -12 -12z"/>
<path d="M7580 7541 c0 -6 4 -13 10 -16 6 -3 7 1 4 9 -7 18 -14 21 -14 7z"/>
<path d="M3300 7361 c0 -6 4 -13 10 -16 6 -3 7 1 4 9 -7 18 -14 21 -14 7z"/>
<path d="M7745 7040 c-3 -6 1 -7 9 -4 18 7 21 14 7 14 -6 0 -13 -4 -16 -10z"/>
<path d="M7775 6800 c-3 -6 1 -7 9 -4 18 7 21 14 7 14 -6 0 -13 -4 -16 -10z"/>
<path d="M7846 6638 c3 -5 10 -6 15 -3 13 9 11 12 -6 12 -8 0 -12 -4 -9 -9z"/>
<path d="M3044 6512 c3 -6 -2 -13 -11 -15 -16 -4 -16 -5 -1 -6 21 -1 32 15 17
25 -7 4 -9 3 -5 -4z"/>
<path d="M2996 6427 c3 -10 9 -15 12 -12 3 3 0 11 -7 18 -10 9 -11 8 -5 -6z"/>
<path d="M2996 6342 c-3 -5 1 -9 9 -9 8 0 15 4 15 9 0 4 -4 8 -9 8 -6 0 -12
-4 -15 -8z"/>
<path d="M7905 6330 c-3 -6 1 -7 9 -4 18 7 21 14 7 14 -6 0 -13 -4 -16 -10z"/>
<path d="M3006 6164 c-5 -14 -4 -15 9 -4 17 14 19 20 6 20 -5 0 -12 -7 -15
-16z"/>
<path d="M3015 6091 c-3 -5 -2 -12 3 -15 5 -3 9 1 9 9 0 17 -3 19 -12 6z"/>
<path d="M3180 5539 c0 -5 5 -7 10 -4 6 3 10 8 10 11 0 2 -4 4 -10 4 -5 0 -10
-5 -10 -11z"/>
<path d="M7666 5515 c-9 -14 -13 -25 -8 -25 5 0 14 11 20 25 6 14 10 25 8 25
-2 0 -11 -11 -20 -25z"/>
<path d="M3233 5355 c0 -8 4 -12 9 -9 4 3 8 9 8 15 0 5 -4 9 -8 9 -5 0 -9 -7
-9 -15z"/>
<path d="M7525 5210 c-8 -13 9 -20 24 -11 10 6 9 10 -3 14 -8 3 -18 2 -21 -3z"/>
<path d="M6875 4259 c-3 -4 2 -6 10 -5 21 3 28 13 10 13 -9 0 -18 -4 -20 -8z"/>
<path d="M6825 4140 c-3 -5 1 -10 10 -10 9 0 13 5 10 10 -3 6 -8 10 -10 10 -2
0 -7 -4 -10 -10z"/>
<path d="M3955 3390 c-3 -5 -1 -10 4 -10 6 0 11 5 11 10 0 6 -2 10 -4 10 -3 0
-8 -4 -11 -10z"/>
<path d="M4230 3201 c0 -5 7 -12 16 -15 14 -5 15 -4 4 9 -14 17 -20 19 -20 6z"/>
<path d="M6195 3200 c-3 -5 -1 -10 4 -10 6 0 11 5 11 10 0 6 -2 10 -4 10 -3 0
-8 -4 -11 -10z"/>
<path d="M4473 3065 c0 -8 4 -12 8 -9 4 2 17 -6 29 -18 15 -16 19 -18 15 -6
-4 9 -17 23 -29 32 -19 12 -23 12 -23 1z"/>
<path d="M5487 2949 c7 -7 15 -10 18 -7 3 3 -2 9 -12 12 -14 6 -15 5 -6 -5z"/>
<path d="M4715 2661 c-3 -5 -2 -12 3 -15 5 -3 9 1 9 9 0 17 -3 19 -12 6z"/>
<path d="M5220 2458 c0 -4 4 -8 9 -8 6 0 12 4 15 8 3 5 -1 9 -9 9 -8 0 -15 -4
-15 -9z"/>
<path d="M4676 2222 c-3 -5 1 -9 9 -9 8 0 12 4 9 9 -3 4 -7 8 -9 8 -2 0 -6 -4
-9 -8z"/>
<path d="M4665 2030 c-3 -6 1 -7 9 -4 18 7 21 14 7 14 -6 0 -13 -4 -16 -10z"/>
<path d="M4660 1999 c0 -5 5 -7 10 -4 6 3 10 8 10 11 0 2 -4 4 -10 4 -5 0 -10
-5 -10 -11z"/>
<path d="M4735 1810 c-4 -6 -4 -14 -1 -17 3 -4 6 -1 6 6 0 7 5 9 10 6 6 -4 8
-10 5 -15 -3 -5 -1 -11 4 -14 19 -12 20 12 2 28 -13 12 -21 14 -26 6z"/>
<path d="M5118 1723 c7 -3 16 -2 19 1 4 3 -2 6 -13 5 -11 0 -14 -3 -6 -6z"/>
<path d="M4988 1703 c7 -3 16 -2 19 1 4 3 -2 6 -13 5 -11 0 -14 -3 -6 -6z"/>
</g>
</svg>
